# xmcd CD database file
#
# Track frame offsets:
#	150
#	17487
#	30005
#	45797
#	58084
#	67568
#	82708
#	99485
#	117121
#	136453
#	146538
#	167081
#
# Disc length: 2387 seconds
#
# Revision: 1
# Processed by: cddbd v1.5.2PL0 Copyright (c) Steve Scherf et al.
# Submitted via: CDex 1.51
#
DISCID=7f09510c
DTITLE=Norm Amadio - Norm Amadio and Friends
DYEAR=2009
DGENRE=Jazz
TTITLE0=I Love You That Way
TTITLE1=Words
TTITLE2=Out of the Cool
TTITLE3='Round the Bend
TTITLE4=The World Is Going to the Dogs
TTITLE5=All I Need Is You
TTITLE6=She Smiled
TTITLE7=Lower Chakra Love
TTITLE8=My Love Can't Wait
TTITLE9=My Itchy Beard
TTITLE10=You're The One for Me
TTITLE11=The Skies
EXTD=YEAR: 2009
EXTT0=
EXTT1=
EXTT2=
EXTT3=
EXTT4=
EXTT5=
EXTT6=
EXTT7=
EXTT8=
EXTT9=
EXTT10=
EXTT11=
PLAYORDER=
